<svg width="200" height="200" viewBox="0 0 200 200" fill="none" xmlns="http://www.w3.org/2000/svg">
<rect width="200" height="200" rx="25" fill="white"/>
<rect width="200" height="200" rx="25" fill="url(#paint0_radial)"/>
<g clip-path="url(#clip0)">
<path d="M90.5625 90.125C90.5625 87.506 91.6095 84.9942 93.4731 83.1423C95.3368 81.2904 97.8644 80.25 100.5 80.25C103.136 80.25 105.663 81.2904 107.527 83.1423C109.391 84.9942 110.438 87.506 110.438 90.125V100H90.5625V90.125Z" fill="white"/>
<path d="M113.349 21H60.75C55.4788 21 50.4235 23.0808 46.6963 26.7846C42.969 30.4885 40.875 35.512 40.875 40.75V159.25C40.875 164.488 42.969 169.512 46.6963 173.215C50.4235 176.919 55.4788 179 60.75 179H140.25C145.521 179 150.576 176.919 154.304 173.215C158.031 169.512 160.125 164.488 160.125 159.25V67.4816C160.124 64.8628 159.077 62.3515 157.213 60.5L120.375 23.8934C118.512 22.0413 115.985 21.0006 113.349 21V21ZM115.406 55.5625V35.8125L145.219 65.4375H125.344C122.708 65.4375 120.181 64.3971 118.317 62.5452C116.453 60.6933 115.406 58.1815 115.406 55.5625ZM120.375 90.125V100.751C125.741 102.39 130.312 106.646 130.312 112.838V136.537C130.312 144.595 122.551 149.375 115.406 149.375H85.5938C78.4487 149.375 70.6875 144.595 70.6875 136.537V112.838C70.6875 106.646 75.2587 102.39 80.625 100.751V90.125C80.625 84.887 82.719 79.8635 86.4463 76.1596C90.1735 72.4558 95.2288 70.375 100.5 70.375C105.771 70.375 110.826 72.4558 114.554 76.1596C118.281 79.8635 120.375 84.887 120.375 90.125V90.125Z" fill="white"/>
</g>
<defs>
<radialGradient id="paint0_radial" cx="0" cy="0" r="1" gradientUnits="userSpaceOnUse" gradientTransform="translate(185 208.5) rotate(-130.38) scale(210.695)">
<stop offset="0.322917" stop-color="#222244"/>
<stop offset="0.541567" stop-color="#222244"/>
<stop offset="0.541667" stop-color="#363677"/>
<stop offset="0.588342" stop-color="#363677"/>
<stop offset="0.9998" stop-color="#222244"/>
</radialGradient>
<clipPath id="clip0">
<rect width="159" height="158" fill="white" transform="translate(21 21)"/>
</clipPath>
</defs>
</svg>
